<svg width="24" height="24" viewBox="0 0 24 24" fill="none" xmlns="http://www.w3.org/2000/svg">
<path d="M23.7209 14.4713C22.9769 18.1425 20.8361 20.8457 17.5497 22.6313C16.8481 23.0109 16.1054 23.3091 15.3361 23.5201V14.6489H17.8961C18.0257 13.6489 18.1529 12.6633 18.2849 11.6465H15.3369C15.3369 10.8465 15.3033 10.0737 15.3481 9.30405C15.3801 8.73365 15.6937 8.42404 16.2601 8.33764C16.6897 8.27524 17.1313 8.29284 17.5673 8.28164C17.8305 8.27524 18.0945 8.28164 18.3593 8.28164V5.57923C17.7993 5.54803 17.2449 5.49123 16.6937 5.49923C16.1185 5.49923 15.5289 5.49363 14.9721 5.61443C13.3521 5.96083 12.3201 7.22404 12.2401 8.92005C12.1993 9.73045 12.2185 10.5441 12.2113 11.3553C12.2113 11.4473 12.2113 11.5385 12.2113 11.6561H9.65125V14.6657H12.1897V23.9801C12.1612 23.9867 12.1323 23.9915 12.1033 23.9945C12.0409 23.9945 11.9793 23.9945 11.9161 23.9945C10.1833 23.9761 8.51684 23.6361 6.95604 22.8745C3.24722 21.074 0.990939 18.1457 0.187201 14.0897C0.100001 13.6473 0.0616003 13.2001 0 12.7489V11.2489C0.0184001 11.0953 0.0392002 10.9417 0.0560003 10.7881C0.338402 8.19524 1.33601 5.90803 3.08322 3.97682C4.93523 1.92961 7.22724 0.654403 9.95445 0.181601C10.3833 0.107201 10.8169 0.0600003 11.2489 0H12.7481C13.0337 0.0352002 13.3201 0.0648003 13.6041 0.104801C16.1801 0.469602 18.4409 1.51681 20.2913 3.34482C23.4137 6.43043 24.5929 10.1753 23.7209 14.4713Z" fill="white"/>
</svg>
