<svg width="24" height="24" viewBox="0 0 24 24" fill="none" xmlns="http://www.w3.org/2000/svg">
<path d="M23.8128 9.93176C23.1441 6.34573 21.2363 3.60282 18.139 1.69262C16.5615 0.727814 14.7735 0.160167 12.9284 0.038396C12.8673 0.0296004 12.8069 0.0167737 12.7476 0L11.2477 0C10.8158 0.0599937 10.3822 0.106389 9.95267 0.181581C7.18257 0.661531 4.86441 1.96939 3.0014 4.06837C1.29678 5.98897 0.304888 8.23913 0.0609136 10.7989C-0.240655 13.9817 0.57526 16.8702 2.55905 19.39C4.55884 21.9345 7.18976 23.4319 10.3982 23.8927C15.1177 24.571 19.95 22.2129 22.3418 18.0869C23.2672 16.5139 23.821 14.7503 23.9608 12.9306C23.9696 12.8693 23.9827 12.8086 24 12.7491V11.25C23.936 10.8101 23.8936 10.3669 23.8128 9.93176ZM18.7869 15.4088C18.627 17.271 17.2799 18.6508 15.4209 18.782C13.9275 18.886 12.4244 18.878 10.9262 18.878C10.0535 18.878 9.17116 18.8636 8.31045 18.7404C6.57703 18.4925 5.38196 17.1902 5.20517 15.4464C5.15121 14.9498 5.12238 14.4508 5.11878 13.9513C5.11878 12.3187 5.12358 10.6861 5.16598 9.05425C5.18079 8.57858 5.26569 8.10769 5.41795 7.6568C5.8771 6.28974 6.8714 5.50342 8.27365 5.25705C8.85935 5.16159 9.45205 5.11557 10.0455 5.11946C11.6693 5.11386 13.2939 5.13306 14.9186 5.15626C15.53 5.15754 16.1341 5.28955 16.6904 5.54342C17.9702 6.14416 18.6558 7.19524 18.7821 8.5711C18.8869 9.71178 18.8805 10.8637 18.9229 12.0019C18.8773 13.1474 18.8773 14.2817 18.7869 15.4088Z" fill="white"/>
<path d="M17.5655 8.89267C17.5255 7.41443 16.5848 6.47133 15.1129 6.43213C13.0332 6.37614 10.9496 6.37614 8.86239 6.43213C7.42255 6.47053 6.51064 7.42403 6.42345 8.86548C6.36106 9.90537 6.35706 10.9405 6.32666 11.9979C6.35706 13.0378 6.35786 14.1041 6.42745 15.1624C6.49464 16.1751 6.9386 16.9942 7.94169 17.3574C8.39008 17.5154 8.86135 17.5989 9.33674 17.6046C11.1086 17.6334 12.8812 17.6294 14.6538 17.6046C15.0906 17.6012 15.5245 17.5322 15.9409 17.3998C17.0015 17.051 17.5335 16.2263 17.5599 15.164C17.6127 13.0762 17.6207 10.9821 17.5655 8.89267ZM11.9821 15.532C11.2833 15.529 10.6011 15.319 10.0216 14.9285C9.44211 14.5381 8.9913 13.9846 8.72613 13.3381C8.46095 12.6916 8.39328 11.9811 8.53167 11.2961C8.67007 10.6112 9.00832 9.98265 9.5037 9.48983C9.99909 8.99701 10.6294 8.66203 11.315 8.5272C12.0007 8.39236 12.7109 8.46372 13.356 8.73225C14.0011 9.00079 14.5522 9.45446 14.9396 10.036C15.3271 10.6175 15.5335 11.3008 15.5329 11.9995C15.5333 12.4653 15.4417 12.9264 15.2632 13.3566C15.0847 13.7867 14.8229 14.1774 14.4929 14.506C14.1629 14.8345 13.7712 15.0946 13.3403 15.2713C12.9094 15.4479 12.4478 15.5376 11.9821 15.5352V15.532ZM15.6961 9.13985C15.5327 9.14445 15.3717 9.10031 15.2335 9.01306C15.0953 8.92581 14.9862 8.7994 14.9201 8.64993C14.854 8.50046 14.8339 8.3347 14.8624 8.17377C14.8908 8.01284 14.9665 7.86402 15.0799 7.74627C15.1932 7.62852 15.339 7.54717 15.4987 7.51259C15.6585 7.478 15.8249 7.49175 15.9768 7.55208C16.1286 7.61241 16.2591 7.71658 16.3516 7.85133C16.4441 7.98609 16.4943 8.14532 16.496 8.30874C16.4986 8.41614 16.48 8.52301 16.4412 8.62319C16.4024 8.72336 16.3441 8.81487 16.2697 8.89242C16.1954 8.96997 16.1064 9.03204 16.0079 9.07506C15.9095 9.11807 15.8035 9.14118 15.6961 9.14305V9.13985Z" fill="white"/>
<path d="M14.2938 11.9987C14.2941 12.4532 14.1596 12.8976 13.9072 13.2755C13.6549 13.6535 13.296 13.9481 12.8761 14.122C12.4562 14.296 11.9942 14.3414 11.5485 14.2526C11.1027 14.1637 10.6934 13.9447 10.3722 13.6231C10.0511 13.3015 9.83258 12.8918 9.74438 12.446C9.65618 12.0001 9.70225 11.5381 9.87676 11.1185C10.0513 10.6988 10.3464 10.3404 10.7247 10.0886C11.103 9.83671 11.5476 9.70279 12.0021 9.70374C12.6098 9.70585 13.192 9.94842 13.6214 10.3784C14.0508 10.8085 14.2926 11.391 14.2938 11.9987Z" fill="white"/>
</svg>
