<svg width="24" height="24" viewBox="0 0 24 24" fill="none" xmlns="http://www.w3.org/2000/svg">
<path d="M20.511 3.55757C18.5799 1.55759 16.1855 0.422397 13.4191 0.0871993C13.1951 0.0599995 12.9727 0.0295998 12.7487 0H11.2495C10.8103 0.0607995 10.3695 0.107999 9.93192 0.183999C7.39994 0.624795 5.23356 1.77279 3.43997 3.59997C1.70141 5.34534 0.554218 7.59215 0.159999 10.0239C0.0911993 10.4303 0.0503996 10.8407 0 11.2495V12.7495C0.0615995 13.1967 0.103999 13.6471 0.186399 14.0911C0.811994 17.4436 2.53918 20.0772 5.36796 21.9918C7.43354 23.3878 9.73432 24.0214 12.2239 23.9982C17.6775 23.9462 22.6014 19.9534 23.7046 14.6127C24.5782 10.3847 23.5142 6.66475 20.511 3.55757ZM17.8807 8.26713C17.6559 9.35993 17.4223 10.4511 17.1903 11.5423C16.7737 13.5028 16.3564 15.4636 15.9383 17.4247C15.7727 18.2015 15.3343 18.3727 14.6975 17.9047C13.7983 17.2433 12.8991 16.5817 11.9999 15.9199C11.9495 15.8831 11.8975 15.8495 11.8335 15.8063L10.3495 17.2359C10.1999 17.3807 10.0383 17.4959 9.78952 17.4759C9.81272 17.1159 9.83512 16.7559 9.85912 16.4023C9.89912 15.8423 9.95112 15.2823 9.97432 14.7223C9.97486 14.6301 9.99596 14.5391 10.0361 14.4561C10.0762 14.373 10.1344 14.3 10.2063 14.2423C11.8964 12.7228 13.5842 11.2002 15.2695 9.67432C15.3536 9.6048 15.4338 9.53055 15.5095 9.45193C15.5566 9.38694 15.5973 9.31755 15.6311 9.24473C15.5383 9.23353 15.4367 9.19433 15.3535 9.21833C15.2365 9.26139 15.1259 9.32005 15.0247 9.39273C12.8647 10.7516 10.7047 12.1116 8.54473 13.4727C8.47311 13.5234 8.3901 13.5557 8.30304 13.5667C8.21597 13.5777 8.12754 13.5672 8.04554 13.5359C7.17034 13.2535 6.29115 12.9839 5.41436 12.7055C5.18396 12.6327 4.90156 12.5719 4.89036 12.2807C4.87916 11.9895 5.14396 11.8807 5.37036 11.7927C6.33035 11.4095 7.30314 11.0399 8.27033 10.6663L16.8255 7.36794C17.1175 7.25514 17.4199 7.10554 17.7055 7.35114C17.9911 7.59674 17.9471 7.94394 17.8807 8.26713Z" fill="white"/>
</svg>
