<svg width="24" height="27" viewBox="0 0 24 27" fill="none" xmlns="http://www.w3.org/2000/svg">
<path d="M23.9655 9.41671C23.9461 8.56178 23.8294 7.71199 23.6175 6.88428C23.1094 5.02933 22.0493 3.37847 20.5818 2.1569C19.1143 0.935319 17.3109 0.202501 15.4175 0.0584032C14.2863 -0.0227124 13.1439 0.0446136 12.0064 0.0446136V0C11.7896 0 11.5728 0 11.356 0C10.1008 0.0243347 8.84558 -0.0575921 7.59999 0.176021C3.36003 0.965275 0.109654 4.80853 0.0280545 9.17417C0.00085469 10.6464 -0.0183452 12.1203 0.0280545 13.5909C0.140054 17.3222 1.84244 20.0858 5.05121 21.8963C5.27041 22.0213 5.35441 22.1397 5.35121 22.4001C5.33841 23.7523 5.35121 25.1036 5.34401 26.4558C5.34401 26.7251 5.41041 26.9725 5.69201 26.9985C5.85201 27.0139 6.06961 26.9077 6.192 26.7852C7.35946 25.622 8.51732 24.4493 9.66558 23.2672C9.75674 23.1622 9.86997 23.0793 9.99693 23.0245C10.1239 22.9698 10.2613 22.9446 10.3992 22.9508C11.6792 22.9703 12.9591 22.9752 14.2391 22.9508C14.9318 22.9509 15.6237 22.9016 16.3095 22.8032C20.5175 22.1251 23.8815 18.2129 23.9743 13.8983C23.9999 12.4107 24.0199 10.9092 23.9655 9.41671ZM16.6399 9.21311C16.2823 7.55024 14.8567 6.42273 13.1199 6.42273C13.0551 6.42841 12.9471 6.4422 12.8399 6.44869C12.5488 6.46653 12.3344 6.30106 12.308 6.04311C12.2816 5.78516 12.4616 5.56858 12.7543 5.53857C13.4348 5.46509 14.1228 5.55541 14.7623 5.8022C15.6168 6.13439 16.3497 6.72514 16.8617 7.49425C17.3736 8.26336 17.6397 9.17357 17.6239 10.1013C17.6244 10.2226 17.6164 10.3438 17.5999 10.4639C17.5543 10.7575 17.3391 10.9433 17.0967 10.9084C16.8543 10.8735 16.6967 10.6497 16.6967 10.356C16.6879 9.97722 16.7199 9.57975 16.6399 9.21311ZM15.8551 9.98208C15.8495 10.2717 15.6815 10.4793 15.4375 10.4688C15.1719 10.4566 15.0311 10.2944 14.9967 10.0291C14.8543 8.89351 14.3447 8.37924 13.2367 8.23972C12.9623 8.20565 12.7783 8.00124 12.8071 7.76114C12.8383 7.49427 13.0471 7.36448 13.4223 7.37503C14.7295 7.41477 15.8815 8.64854 15.8535 9.98208H15.8551ZM18.1415 17.744C17.6991 18.2121 17.2359 18.6606 16.7703 19.1035C16.3703 19.4872 15.8679 19.604 15.3303 19.5902C14.2399 19.5529 13.2575 19.1522 12.336 18.6055C9.32238 16.8144 6.9568 14.3777 5.33921 11.224C4.85202 10.2733 4.51122 9.26583 4.57922 8.16428C4.59929 7.65383 4.81379 7.17116 5.17761 6.81776C5.56561 6.43571 5.94321 6.03987 6.328 5.65376C6.9104 5.07135 7.71999 5.03728 8.30479 5.61644C8.98638 6.2897 9.65118 6.98567 10.2912 7.70192C10.9312 8.41817 10.648 9.45889 9.77597 9.81093C8.95518 10.1435 8.63278 10.76 8.94798 11.5955C9.56638 13.2348 10.708 14.3948 12.308 15.0648C12.9999 15.3544 13.7191 14.9991 14.0287 14.3039C14.4815 13.2851 15.5159 13.0994 16.2903 13.9032C16.9031 14.54 17.5111 15.1808 18.1207 15.8208C18.6519 16.3926 18.6727 17.1803 18.1399 17.744H18.1415ZM19.2799 11.3748C19.2255 11.7131 18.9903 11.8842 18.7199 11.8194C18.4495 11.7545 18.3487 11.546 18.4183 11.1996C19.0943 7.81549 16.6791 4.7339 13.2695 4.62927C13.1175 4.62521 12.9655 4.62927 12.8143 4.62359C12.5568 4.61467 12.368 4.50597 12.3416 4.22612C12.3168 3.9698 12.5192 3.77106 12.8119 3.75241C14.8279 3.62343 16.5095 4.34861 17.8519 5.8533C18.8975 7.02218 19.4039 8.42223 19.4319 10.223C19.3991 10.4639 19.3503 10.9198 19.2799 11.3748Z" fill="white"/>
</svg>
