<svg width="19" height="12" viewBox="0 0 19 12" fill="none" xmlns="http://www.w3.org/2000/svg">
<path d="M18.9996 6.18208C18.88 6.60273 18.5622 6.88907 18.2901 7.20024C17.3155 8.31419 16.237 9.31664 15.0096 10.1488C13.7892 10.9759 12.4832 11.6084 11.019 11.877C9.713 12.1162 8.43536 12.0006 7.18052 11.5815C5.44017 11.0002 3.94562 10.0079 2.61578 8.77031C1.91588 8.11856 1.28036 7.39688 0.634189 6.6904C0.248514 6.26874 0.260678 5.75485 0.619492 5.32002C1.70658 4.00284 2.92036 2.82048 4.33535 1.85756C5.55471 1.02793 6.86124 0.395444 8.32437 0.12532C9.63039 -0.115916 10.9085 -0.00239337 12.1634 0.415209C13.8981 0.992454 15.3902 1.97869 16.7165 3.21122C17.4255 3.87006 18.0656 4.60492 18.7229 5.31799C18.8486 5.45432 18.9094 5.64994 19.0001 5.8182V6.18259L18.9996 6.18208ZM9.68208 10.3419C12.0848 10.3343 14.0198 8.39629 14.0178 5.99862C14.0157 3.59943 12.0798 1.66244 9.67904 1.65839C7.27732 1.65433 5.32056 3.61464 5.33425 6.01078C5.34793 8.41707 7.28796 10.35 9.68208 10.3419Z" fill="#FEFEFC"/>
<path d="M9.68557 3.00339C11.3474 3.01302 12.6833 4.35705 12.6732 6.00922C12.6635 7.67101 11.3195 9.00694 9.66733 8.9968C8.00553 8.98717 6.66961 7.64314 6.67974 5.99097C6.68937 4.32918 8.03341 2.99326 9.68557 3.00339ZM8.75509 5.77913C8.81388 5.41981 8.99785 5.17908 9.37338 5.11624C9.40278 5.11117 9.44687 5.06454 9.44738 5.03667C9.45295 4.73563 9.45092 4.4351 9.45092 4.13507C8.54527 4.12088 7.74706 4.91859 7.7947 5.77913H8.7556H8.75509Z" fill="#FEFEFC"/>
</svg>
